<?xml version="1.0" standalone="no"?>
<!DOCTYPE svg PUBLIC "-//W3C//DTD SVG 20010904//EN"
 "http://www.w3.org/TR/2001/REC-SVG-20010904/DTD/svg10.dtd">
<svg version="1.0" xmlns="http://www.w3.org/2000/svg"
 width="296.000000pt" height="145.000000pt" viewBox="0 0 296.000000 145.000000"
 preserveAspectRatio="xMidYMid meet">

<g transform="translate(0.000000,145.000000) scale(0.100000,-0.100000)"
fill="#000000" stroke="none">
<path d="M144 1253 c16 -114 18 -176 4 -185 -10 -7 -10 -11 0 -15 6 -2 12 -11
12 -19 0 -9 -4 -12 -10 -9 -5 3 -10 -3 -10 -13 0 -13 6 -19 18 -18 10 0 17 -6
17 -16 0 -9 3 -20 7 -23 10 -11 159 65 152 76 -3 6 0 9 7 8 22 -5 70 11 64 20
-3 5 4 7 15 4 19 -5 20 -14 20 -124 l0 -119 25 0 c25 0 33 14 15 25 -6 3 -9
40 -8 83 l2 77 6 -80 c4 -55 7 -11 8 143 l2 222 -25 0 c-25 0 -25 -1 -25 -91
l0 -90 -57 -26 c-32 -15 -59 -30 -61 -35 -2 -4 -10 -8 -17 -8 -24 0 -65 -23
-65 -36 0 -7 -5 -16 -12 -20 -7 -5 -9 -2 -6 8 5 11 0 14 -18 10 -29 -5 -27
-15 -24 156 2 130 2 132 -20 132 -19 0 -21 -4 -16 -37z"/>
<path d="M726 1145 l74 -146 0 -89 c0 -89 0 -90 25 -90 25 0 25 1 25 84 0 93
10 121 100 282 27 49 50 92 50 97 0 4 -10 7 -23 7 -20 0 -32 -18 -83 -122 -32
-68 -63 -123 -69 -123 -5 0 -23 32 -40 70 -16 39 -33 72 -37 73 -5 2 -8 8 -8
13 0 5 -8 27 -17 49 -14 32 -23 40 -44 40 l-27 0 74 -145z"/>
<path d="M1160 1055 l0 -235 26 0 26 0 -4 200 c-1 110 0 200 5 200 4 0 7 -5 7
-11 0 -5 5 -7 12 -3 6 4 8 3 5 -4 -7 -9 50 -111 170 -304 32 -50 56 -78 70
-81 13 -2 25 -2 28 1 3 3 5 110 5 239 0 226 -1 233 -20 233 -19 0 -20 -8 -22
-207 l-3 -208 -49 85 c-27 47 -75 126 -106 176 -32 50 -65 105 -74 122 -13 25
-23 32 -46 32 l-30 0 0 -235z"/>
<path d="M1710 1270 c0 -19 7 -20 155 -20 148 0 155 1 155 20 0 19 -7 20 -155
20 -148 0 -155 -1 -155 -20z"/>
<path d="M2220 1056 c0 -244 1 -249 43 -238 15 4 17 23 17 218 l0 214 69 0
c78 0 127 -14 141 -40 13 -24 13 -76 0 -101 -12 -22 -61 -49 -89 -49 -36 0
-17 -54 65 -182 36 -55 49 -68 70 -68 32 0 29 8 -24 88 -42 62 -75 122 -70
127 2 2 20 10 40 18 49 21 72 58 72 118 0 40 -5 54 -28 78 -37 39 -86 51 -205
51 l-101 0 0 -234z"/>
<path d="M1710 1065 c0 -13 22 -15 140 -15 118 0 140 2 140 15 0 13 -22 15
-140 15 -118 0 -140 -2 -140 -15z"/>
<path d="M140 897 c0 -48 3 -57 18 -57 24 0 25 68 0 94 -18 19 -18 19 -18 -37z"/>
<path d="M1710 836 c0 -20 62 -28 200 -24 100 3 115 5 118 21 3 16 -10 17
-157 17 -133 0 -161 -2 -161 -14z"/>
<path d="M1257 586 c-47 -17 -72 -39 -87 -77 -16 -38 -7 -70 31 -114 25 -28
34 -33 45 -24 12 10 13 9 8 -5 -4 -11 -1 -16 12 -16 9 0 45 -14 79 -30 86 -42
107 -93 61 -146 -20 -24 -32 -28 -89 -32 -55 -4 -73 -1 -102 17 -39 23 -60 26
-69 12 -6 -10 41 -44 61 -44 7 0 13 -3 13 -7 0 -8 1 -8 92 -10 79 -3 121 17
152 70 14 23 16 31 5 25 -11 -6 -12 -5 -1 6 40 43 -16 115 -121 155 -125 47
-154 82 -121 145 22 43 83 58 143 35 60 -23 76 -24 76 -7 0 19 -60 49 -110 56
-23 3 -56 -1 -78 -9z"/>
<path d="M2084 590 c-109 -25 -168 -115 -167 -251 0 -121 63 -207 165 -231 55
-12 136 -2 176 22 l32 20 0 100 0 100 -75 0 c-68 0 -75 -2 -75 -19 0 -17 8
-20 53 -23 l52 -3 -2 -65 c-1 -36 -2 -68 -3 -72 0 -11 -62 -28 -102 -28 -85 0
-147 53 -168 143 -12 55 -5 138 15 176 45 86 158 121 239 73 33 -20 37 -20 43
-5 8 21 -26 49 -75 63 -42 11 -63 11 -108 0z"/>
<path d="M235 580 c-17 -7 -15 -9 11 -9 17 -1 34 -4 38 -8 3 -4 16 -8 28 -10
12 -2 25 -7 28 -11 3 -4 18 -13 33 -20 17 -7 25 -17 21 -24 -4 -7 -3 -8 4 -4
8 5 12 -1 12 -14 0 -14 4 -19 12 -14 7 5 9 2 6 -7 -3 -8 -2 -23 2 -34 6 -16 8
-13 7 13 0 18 -4 35 -9 38 -4 3 -8 15 -8 28 0 24 -32 61 -43 49 -4 -3 -7 -2
-7 4 0 6 -9 9 -22 5 -13 -3 -19 -1 -15 5 4 7 -5 10 -23 8 -17 -1 -33 1 -36 6
-6 11 -12 10 -39 -1z"/>
<path d="M803 582 c-118 -2 -143 -5 -143 -17 0 -13 25 -15 150 -15 124 0 150
3 150 14 0 8 -3 16 -7 18 -5 2 -72 2 -150 0z"/>
<path d="M1670 350 l0 -240 25 0 25 0 0 240 0 240 -25 0 -25 0 0 -240z"/>
<path d="M2500 350 l0 -240 26 0 27 0 -5 206 c-3 113 -2 202 2 197 4 -4 43
-69 87 -143 162 -272 153 -260 185 -260 l28 0 0 240 0 240 -26 0 -26 0 4 -205
c2 -113 1 -205 -2 -205 -3 0 -31 47 -64 103 -32 56 -80 136 -107 177 -26 41
-53 87 -60 103 -9 20 -19 27 -41 27 l-28 0 0 -240z"/>
<path d="M185 560 c4 -6 11 -8 16 -5 14 9 11 15 -7 15 -8 0 -12 -5 -9 -10z"/>
<path d="M141 504 c0 -11 3 -14 6 -6 3 7 2 16 -1 19 -3 4 -6 -2 -5 -13z"/>
<path d="M443 488 c3 -9 9 -33 13 -52 3 -20 10 -38 14 -41 12 -7 25 16 14 24
-5 3 -10 17 -12 31 -1 14 -10 32 -19 40 -14 13 -15 13 -10 -2z"/>
<path d="M800 360 c0 -6 25 -9 64 -8 35 2 62 6 59 11 -7 11 -123 8 -123 -3z"/>
<path d="M420 190 c0 -5 5 -10 10 -10 6 0 10 5 10 10 0 6 -4 10 -10 10 -5 0
-10 -4 -10 -10z"/>
<path d="M845 130 l-110 -6 108 -2 c59 -1 110 -2 114 -3 4 0 9 4 11 10 2 6 0
10 -5 9 -4 -1 -57 -5 -118 -8z"/>
<path d="M258 123 c6 -2 18 -2 25 0 6 3 1 5 -13 5 -14 0 -19 -2 -12 -5z"/>
</g>
</svg>
